<svg xmlns="http://www.w3.org/2000/svg" viewBox="0 0 24 24" x="0px" y="0px"><g fill="#000000" stroke="none"><path d="M4.000 18.000 l0.000 -2.000 2.000 0.000 2.000 0.000 0.000 2.000 0.000 2.000 -2.000 0.000 -2.000 0.000 0.000 -2.000z M10.000 18.000 l0.000 -2.000 2.000 0.000 2.000 0.000 0.000 2.000 0.000 2.000 -2.000 0.000 -2.000 0.000 0.000 -2.000z M16.000 18.000 l0.000 -2.000 2.000 0.000 2.000 0.000 0.000 2.000 0.000 2.000 -2.000 0.000 -2.000 0.000 0.000 -2.000z M16.590 13.400 l-1.400 -1.400 1.400 -1.410 1.410 -1.400 1.410 1.400 1.400 1.410 -1.400 1.400 c-0.770 0.780 -1.410 1.410 -1.410 1.410 0.000 0.000 -0.640 -0.630 -1.410 -1.410z M4.000 12.000 l0.000 -2.000 2.000 0.000 2.000 0.000 0.000 2.000 0.000 2.000 -2.000 0.000 -2.000 0.000 0.000 -2.000z M10.000 12.000 l0.000 -2.000 2.000 0.000 2.000 0.000 0.000 2.000 0.000 2.000 -2.000 0.000 -2.000 0.000 0.000 -2.000z M10.590 7.400 l-1.400 -1.400 1.400 -1.410 1.410 -1.400 1.410 1.400 1.400 1.410 -1.400 1.400 c-0.770 0.780 -1.410 1.410 -1.410 1.410 0.000 0.000 -0.640 -0.630 -1.410 -1.410z M4.000 6.000 l0.000 -2.000 2.000 0.000 2.000 0.000 0.000 2.000 0.000 2.000 -2.000 0.000 -2.000 0.000 0.000 -2.000z "></path></g></svg>