<svg xmlns:dc="http://purl.org/dc/elements/1.1/" xmlns:cc="http://creativecommons.org/ns#" xmlns:rdf="http://www.w3.org/1999/02/22-rdf-syntax-ns#" xmlns:svg="http://www.w3.org/2000/svg" xmlns="http://www.w3.org/2000/svg" xmlns:sodipodi="http://sodipodi.sourceforge.net/DTD/sodipodi-0.dtd" xmlns:inkscape="http://www.inkscape.org/namespaces/inkscape" viewBox="0 0 24 24" version="1.1" x="0px" y="0px"><g transform="translate(0,-1028.3622)"><path d="m 11,1032.363 0,1.0781 c -1.153008,0.1649 -2.268026,0.6163 -3.236329,1.3535 l -0.757812,-0.7578 -1.414062,1.414 0.769531,0.7696 c -0.69455,0.9461 -1.121985,2.0273 -1.28125,3.1426 l -1.080078,0 0,2 1.080078,0 c 0.159317,1.1155 0.58825,2.1962 1.283203,3.1425 l -0.771484,0.7715 1.414062,1.4141 0.757812,-0.7578 c 0.96801,0.7364 2.083839,1.1868 3.236329,1.3515 l 0,1.0782 2,0 0,-1.0782 c 1.152668,-0.1644 2.26807,-0.6153 3.236328,-1.3515 l 0.757812,0.7578 1.414063,-1.4141 -0.769532,-0.7695 c 0.695503,-0.9466 1.123815,-2.0285 1.283204,-3.1445 l 1.078125,0 0,-2 -1.078125,0 c -0.159318,-1.1156 -0.588251,-2.1963 -1.283204,-3.1426 l 0.769532,-0.7696 -1.414063,-1.414 -0.755859,0.7558 C 15.26984,1034.0558 14.153024,1033.6059 13,1033.4411 l 0,-1.0781 -2,0 z m 1,2.9882 c 1.279126,0 2.55929,0.491 3.541015,1.4727 1.963412,1.9635 1.963412,5.1166 0,7.0801 -1.963451,1.9634 -5.116626,1.9634 -7.080078,0 -1.963412,-1.9635 -1.963412,-5.1166 0,-7.0801 0.981726,-0.9817 2.259936,-1.4727 3.539063,-1.4727 z" style="color:#000000;font-style:normal;font-variant:normal;font-weight:normal;font-stretch:normal;font-size:medium;line-height:normal;font-family:sans-serif;text-indent:0;text-align:start;text-decoration:none;text-decoration-line:none;text-decoration-style:solid;text-decoration-color:#000000;letter-spacing:normal;word-spacing:normal;text-transform:none;direction:ltr;block-progression:tb;writing-mode:lr-tb;baseline-shift:baseline;text-anchor:start;white-space:normal;clip-rule:nonzero;display:inline;overflow:visible;visibility:visible;opacity:1;isolation:auto;mix-blend-mode:normal;color-interpolation:sRGB;color-interpolation-filters:linearRGB;solid-color:#000000;solid-opacity:1;fill:#000000;fill-opacity:1;fill-rule:evenodd;stroke:none;stroke-width:2;stroke-linecap:butt;stroke-linejoin:miter;stroke-miterlimit:4;stroke-dasharray:none;stroke-dashoffset:0;stroke-opacity:1;color-rendering:auto;image-rendering:auto;shape-rendering:auto;text-rendering:auto;enable-background:accumulate"></path><path d="m 0,1028.3622 c 0,8 0,16 0,24 l 24,0 0,-24 z m 2,2 20,0 0,20 -20,0 z" style="color:#000000;font-style:normal;font-variant:normal;font-weight:normal;font-stretch:normal;font-size:medium;line-height:normal;font-family:sans-serif;text-indent:0;text-align:start;text-decoration:none;text-decoration-line:none;text-decoration-style:solid;text-decoration-color:#000000;letter-spacing:normal;word-spacing:normal;text-transform:none;direction:ltr;block-progression:tb;writing-mode:lr-tb;baseline-shift:baseline;text-anchor:start;white-space:normal;clip-rule:nonzero;display:inline;overflow:visible;visibility:visible;opacity:1;isolation:auto;mix-blend-mode:normal;color-interpolation:sRGB;color-interpolation-filters:linearRGB;solid-color:#000000;solid-opacity:1;fill:#000000;fill-opacity:1;fill-rule:nonzero;stroke:none;stroke-width:2;stroke-linecap:butt;stroke-linejoin:miter;stroke-miterlimit:4;stroke-dasharray:none;stroke-dashoffset:0;stroke-opacity:1;color-rendering:auto;image-rendering:auto;shape-rendering:auto;text-rendering:auto;enable-background:accumulate"></path><path style="" d="m 13,1040.363 a 1,1 0 0 1 -1,1 1,1 0 0 1 -1,-1 1,1 0 0 1 1,-1 1,1 0 0 1 1,1 z" display="inline" fill="#000000" fill-opacity="1" stroke="none"></path></g></svg>